<svg xmlns="http://www.w3.org/2000/svg" viewBox="0 0.5 56 60">
  <path d="M3 14 24 2C28 0 28 0 32 2L53 14C56 16 56 17 56 19L56 43C56 46 55 47 51 49L32 59C28 61 28 61 24 59L5 49C1 47 0 46 0 43L0 19C0 17 0 16 3 14M28 4 5 17 28 28 51 17 28 4M53 20 30 31 30 56 53 44 53 20M40 42 33 35C33 35 32 34 33 33 34 32 35 33 36 34L36 34 43 41C44 42 44 42 43 43L35 51C35 51 34 52 33 51 32 50 33 49 33 49L40 42M16 42 23 35C23 35 24 34 23 33 22 32 21 33 20 34L13 41C12 42 12 42 13 43L21 51C21 51 22 52 23 51 24 50 23 49 23 49L16 42" fill="#000000"/>
</svg>